<?xml version="1.0" standalone="no"?>
<!DOCTYPE svg PUBLIC "-//W3C//DTD SVG 20010904//EN"
 "http://www.w3.org/TR/2001/REC-SVG-20010904/DTD/svg10.dtd">
<svg version="1.0" xmlns="http://www.w3.org/2000/svg"
 width="250.000000pt" height="250.000000pt" viewBox="0 0 250.000000 250.000000"
 preserveAspectRatio="xMidYMid meet">
<metadata>
Created by potrace 1.14, written by Peter Selinger 2001-2017
</metadata>
<g transform="translate(0.000000,250.000000) scale(0.100000,-0.100000)"
fill="#000000" stroke="none">
<path d="M1120 1951 c-205 -39 -368 -184 -436 -391 -22 -68 -25 -224 -5 -295
8 -27 25 -71 38 -97 l23 -47 -142 -3 -142 -3 3 -54 c6 -111 56 -258 122 -359
l33 -50 48 24 48 24 1 128 c1 70 0 137 -1 150 -1 13 4 30 10 38 15 17 56 19
67 2 4 -7 6 -71 4 -141 -3 -121 -2 -129 15 -125 17 3 19 16 22 126 2 76 6 121
12 117 6 -4 10 -98 10 -236 l0 -229 25 0 25 0 0 211 c0 137 3 208 10 204 6 -3
10 -35 10 -70 0 -53 3 -63 15 -59 10 4 15 20 15 44 0 44 11 56 37 41 17 -10
17 -10 1 -11 -16 0 -18 -13 -18 -140 l0 -140 25 0 25 0 0 136 c0 135 0 135 22
128 12 -3 52 -12 89 -18 l68 -11 -140 -213 c-76 -117 -139 -214 -139 -216 0
-8 80 -35 154 -51 105 -24 281 -17 381 15 137 43 289 139 356 223 l22 29 76
-75 c42 -41 87 -80 100 -87 53 -27 134 19 147 85 8 46 -11 76 -115 179 l-90
89 15 36 c22 58 44 162 44 214 l0 48 -160 -3 c-88 -2 -159 -1 -157 2 17 29 51
116 63 160 55 211 -53 476 -240 589 -120 72 -276 104 -396 82z m243 -139 c214
-76 334 -313 268 -530 -11 -38 -35 -91 -53 -117 l-33 -48 -130 -1 -130 -1 -3
-72 c-2 -40 -7 -73 -12 -73 -6 0 -10 109 -10 280 l0 280 115 0 115 0 0 25 c0
24 0 24 -112 27 l-113 3 -3 93 -3 92 -29 0 -30 0 0 -95 0 -95 -106 0 c-71 0
-103 3 -99 11 11 18 -4 57 -25 64 -32 10 -57 -12 -92 -82 -31 -63 -33 -75 -33
-168 0 -89 3 -107 29 -162 37 -80 58 -100 94 -87 38 13 38 37 1 111 -28 56
-33 76 -33 137 0 52 5 83 21 116 12 25 22 37 22 28 1 -16 13 -18 111 -18 l110
0 0 -280 c0 -180 -4 -280 -10 -280 -6 0 -10 32 -10 75 l0 76 -147 -2 -147 -1
-29 42 c-117 169 -94 404 54 551 119 118 292 157 452 101z"/>
<path d="M727 996 c-7 -19 18 -40 39 -32 8 3 14 14 12 23 -4 22 -43 29 -51 9z"/>
<path d="M730 755 l0 -186 23 3 c22 3 22 4 22 183 0 179 0 180 -22 183 l-23 3
0 -186z"/>
</g>
</svg>
